<svg width="182" height="41" viewBox="0 0 182 41" fill="none" xmlns="http://www.w3.org/2000/svg">
<path d="M2.59613 26V4.24H16.4841V8.08H7.01213V14.48H14.7561V18.32H7.01213V26H2.59613ZM23.5321 18.704V26H19.1161V4.24H27.5641C32.6841 4.24 35.2441 6.62933 35.2441 11.408C35.2441 14.2453 34.1775 16.336 32.0441 17.68L35.1481 26H30.3161L27.7881 18.704H23.5321ZM27.6281 14.928C28.6735 14.928 29.4521 14.608 29.9641 13.968C30.4761 13.328 30.7321 12.4853 30.7321 11.44C30.7321 10.3947 30.4548 9.56267 29.9001 8.944C29.3668 8.32533 28.5881 8.016 27.5641 8.016H23.5321V14.928H27.6281ZM38.4799 26V4.24H52.5599V8.08H42.8959V13.168H50.6399V16.944H42.8959V22.16H52.5599V26H38.4799ZM63.0466 26H55.7186V4.24H63.0466C64.924 4.24 66.4706 4.44267 67.6866 4.848C68.9026 5.232 69.8413 5.88267 70.5026 6.8C71.1853 7.696 71.6546 8.76267 71.9106 10C72.1666 11.216 72.2946 12.8053 72.2946 14.768C72.2946 16.7307 72.1773 18.3627 71.9426 19.664C71.708 20.944 71.26 22.096 70.5986 23.12C69.9586 24.1227 69.02 24.8587 67.7826 25.328C66.5453 25.776 64.9666 26 63.0466 26ZM67.6866 17.36C67.7293 16.6773 67.7506 15.7387 67.7506 14.544C67.7506 13.328 67.708 12.3573 67.6226 11.632C67.5373 10.9067 67.3346 10.2453 67.0146 9.648C66.6946 9.05067 66.2146 8.64533 65.5746 8.432C64.956 8.19733 64.1133 8.08 63.0466 8.08H60.1346V22.16H63.0466C64.6466 22.16 65.8093 21.7547 66.5346 20.944C67.1533 20.2827 67.5373 19.088 67.6866 17.36ZM82.9729 26H75.6449V4.24H82.9729C84.8502 4.24 86.3969 4.44267 87.6129 4.848C88.8289 5.232 89.7675 5.88267 90.4289 6.8C91.1115 7.696 91.5809 8.76267 91.8369 10C92.0929 11.216 92.2209 12.8053 92.2209 14.768C92.2209 16.7307 92.1035 18.3627 91.8689 19.664C91.6342 20.944 91.1862 22.096 90.5249 23.12C89.8849 24.1227 88.9462 24.8587 87.7089 25.328C86.4715 25.776 84.8929 26 82.9729 26ZM87.6129 17.36C87.6555 16.6773 87.6769 15.7387 87.6769 14.544C87.6769 13.328 87.6342 12.3573 87.5489 11.632C87.4635 10.9067 87.2609 10.2453 86.9409 9.648C86.6209 9.05067 86.1409 8.64533 85.5009 8.432C84.8822 8.19733 84.0395 8.08 82.9729 8.08H80.0609V22.16H82.9729C84.5729 22.16 85.7355 21.7547 86.4609 20.944C87.0795 20.2827 87.4635 19.088 87.6129 17.36ZM103.495 26H99.0794V17.2L92.3594 4.24H97.2554L101.255 12.912L105.255 4.24H110.151L103.495 17.2V26ZM123.027 18.704V26H118.611V4.24H127.059C132.179 4.24 134.739 6.62933 134.739 11.408C134.739 14.2453 133.672 16.336 131.539 17.68L134.643 26H129.811L127.283 18.704H123.027ZM127.123 14.928C128.168 14.928 128.947 14.608 129.459 13.968C129.971 13.328 130.227 12.4853 130.227 11.44C130.227 10.3947 129.95 9.56267 129.395 8.944C128.862 8.32533 128.083 8.016 127.059 8.016H123.027V14.928H127.123ZM142.199 18.736C142.199 21.2747 143.49 22.544 146.071 22.544C148.652 22.544 149.943 21.2747 149.943 18.736V4.24H154.359V18.64C154.359 21.3067 153.666 23.2693 152.279 24.528C150.914 25.7653 148.844 26.384 146.071 26.384C143.298 26.384 141.218 25.7653 139.831 24.528C138.466 23.2693 137.783 21.3067 137.783 18.64V4.24H142.199V18.736ZM158.432 26V4.24H162.848V26H158.432ZM166.053 8.08V4.24H180.453V8.08L171.365 21.584V22.16H180.453V26H166.053V22.192L175.141 8.656V8.08H166.053Z" fill="#323341"/>
<path d="M89.888 29.84H93.092C93.94 29.84 94.576 30.012 95 30.356C95.424 30.692 95.636 31.24 95.636 32C95.636 32.456 95.568 32.82 95.432 33.092C95.296 33.356 95.064 33.592 94.736 33.8C95.096 33.952 95.36 34.172 95.528 34.46C95.704 34.748 95.792 35.148 95.792 35.66C95.792 36.452 95.56 37.04 95.096 37.424C94.632 37.808 93.98 38 93.14 38H89.888V29.84ZM93.056 34.592H91.544V36.584H93.056C93.416 36.584 93.68 36.512 93.848 36.368C94.024 36.224 94.112 35.96 94.112 35.576C94.112 34.92 93.76 34.592 93.056 34.592ZM93.008 31.256H91.544V33.2H93.02C93.644 33.2 93.956 32.876 93.956 32.228C93.956 31.58 93.64 31.256 93.008 31.256ZM97.0205 38V29.84H98.6765V38H97.0205ZM101.966 36.08C102.206 36.496 102.65 36.704 103.298 36.704C103.946 36.704 104.386 36.496 104.618 36.08C104.858 35.656 104.978 34.952 104.978 33.968C104.978 32.976 104.858 32.256 104.618 31.808C104.378 31.36 103.938 31.136 103.298 31.136C102.658 31.136 102.218 31.36 101.978 31.808C101.738 32.256 101.618 32.976 101.618 33.968C101.618 34.952 101.734 35.656 101.966 36.08ZM105.914 37.136C105.41 37.808 104.538 38.144 103.298 38.144C102.058 38.144 101.182 37.808 100.67 37.136C100.166 36.456 99.9141 35.396 99.9141 33.956C99.9141 32.516 100.166 31.448 100.67 30.752C101.182 30.048 102.058 29.696 103.298 29.696C104.538 29.696 105.41 30.048 105.914 30.752C106.426 31.448 106.682 32.516 106.682 33.956C106.682 35.396 106.426 36.456 105.914 37.136ZM101.39 27.932L104.414 26.66L104.906 28.1L101.786 29.048L101.39 27.932ZM112.566 38H107.922V29.84H109.578V36.536H112.566V38ZM115.024 36.08C115.264 36.496 115.708 36.704 116.356 36.704C117.004 36.704 117.444 36.496 117.676 36.08C117.916 35.656 118.036 34.952 118.036 33.968C118.036 32.976 117.916 32.256 117.676 31.808C117.436 31.36 116.996 31.136 116.356 31.136C115.716 31.136 115.276 31.36 115.036 31.808C114.796 32.256 114.676 32.976 114.676 33.968C114.676 34.952 114.792 35.656 115.024 36.08ZM118.972 37.136C118.468 37.808 117.596 38.144 116.356 38.144C115.116 38.144 114.24 37.808 113.728 37.136C113.224 36.456 112.972 35.396 112.972 33.956C112.972 32.516 113.224 31.448 113.728 30.752C114.24 30.048 115.116 29.696 116.356 29.696C117.596 29.696 118.468 30.048 118.972 30.752C119.484 31.448 119.74 32.516 119.74 33.956C119.74 35.396 119.484 36.456 118.972 37.136ZM124.376 35.072V33.632H126.752V37.868C125.608 38.052 124.68 38.144 123.968 38.144C122.696 38.144 121.82 37.804 121.34 37.124C120.868 36.444 120.632 35.364 120.632 33.884C120.632 32.404 120.88 31.336 121.376 30.68C121.872 30.024 122.716 29.696 123.908 29.696C124.652 29.696 125.456 29.78 126.32 29.948L126.752 30.032L126.704 31.316C125.744 31.212 124.956 31.16 124.34 31.16C123.732 31.16 123.304 31.232 123.056 31.376C122.808 31.52 122.624 31.788 122.504 32.18C122.392 32.564 122.336 33.228 122.336 34.172C122.336 35.108 122.452 35.764 122.684 36.14C122.916 36.516 123.396 36.704 124.124 36.704L125.12 36.656V35.072H124.376ZM129.828 36.08C130.068 36.496 130.512 36.704 131.16 36.704C131.808 36.704 132.248 36.496 132.48 36.08C132.72 35.656 132.84 34.952 132.84 33.968C132.84 32.976 132.72 32.256 132.48 31.808C132.24 31.36 131.8 31.136 131.16 31.136C130.52 31.136 130.08 31.36 129.84 31.808C129.6 32.256 129.48 32.976 129.48 33.968C129.48 34.952 129.596 35.656 129.828 36.08ZM133.776 37.136C133.272 37.808 132.4 38.144 131.16 38.144C129.92 38.144 129.044 37.808 128.532 37.136C128.028 36.456 127.776 35.396 127.776 33.956C127.776 32.516 128.028 31.448 128.532 30.752C129.044 30.048 129.92 29.696 131.16 29.696C132.4 29.696 133.272 30.048 133.776 30.752C134.288 31.448 134.544 32.516 134.544 33.956C134.544 35.396 134.288 36.456 133.776 37.136ZM135.136 39.476L135.736 36.356H137.512L136.432 39.476H135.136ZM143.721 31.136C142.849 31.136 142.413 31.424 142.413 32C142.413 32.256 142.521 32.452 142.737 32.588C142.953 32.724 143.457 32.92 144.249 33.176C145.049 33.432 145.609 33.724 145.929 34.052C146.249 34.372 146.409 34.868 146.409 35.54C146.409 36.396 146.149 37.044 145.629 37.484C145.109 37.924 144.429 38.144 143.589 38.144C142.965 38.144 142.201 38.048 141.297 37.856L140.865 37.772L141.033 36.488C142.105 36.632 142.925 36.704 143.493 36.704C144.341 36.704 144.765 36.352 144.765 35.648C144.765 35.392 144.665 35.192 144.465 35.048C144.273 34.904 143.885 34.748 143.301 34.58C142.373 34.316 141.717 34.004 141.333 33.644C140.957 33.276 140.769 32.768 140.769 32.12C140.769 31.304 141.017 30.696 141.513 30.296C142.009 29.896 142.689 29.696 143.553 29.696C144.145 29.696 144.897 29.776 145.809 29.936L146.241 30.02L146.109 31.328C144.981 31.2 144.185 31.136 143.721 31.136ZM152.733 37.868C151.885 38.052 151.121 38.144 150.441 38.144C149.761 38.144 149.217 38.06 148.809 37.892C148.401 37.724 148.081 37.456 147.849 37.088C147.617 36.72 147.457 36.288 147.369 35.792C147.281 35.296 147.237 34.672 147.237 33.92C147.237 32.344 147.457 31.248 147.897 30.632C148.345 30.008 149.165 29.696 150.357 29.696C151.045 29.696 151.841 29.804 152.745 30.02L152.697 31.34C151.905 31.22 151.245 31.16 150.717 31.16C150.197 31.16 149.825 31.232 149.601 31.376C149.377 31.512 149.209 31.776 149.097 32.168C148.993 32.56 148.941 33.228 148.941 34.172C148.941 35.116 149.049 35.772 149.265 36.14C149.489 36.5 149.929 36.68 150.585 36.68C151.249 36.68 151.953 36.624 152.697 36.512L152.733 37.868ZM153.248 39.476L153.848 36.356H155.624L154.544 39.476H153.248ZM162.325 35.624H160.981V38H159.325V29.84H162.325C164.261 29.84 165.229 30.784 165.229 32.672C165.229 33.624 164.981 34.356 164.485 34.868C163.997 35.372 163.277 35.624 162.325 35.624ZM160.981 34.208H162.313C163.137 34.208 163.549 33.696 163.549 32.672C163.549 32.168 163.449 31.808 163.249 31.592C163.049 31.368 162.737 31.256 162.313 31.256H160.981V34.208ZM170.904 38V34.616H167.868V38H166.212V29.84H167.868V33.176H170.904V29.84H172.56V38H170.904ZM176.901 38H174.153V29.84H176.901C177.605 29.84 178.185 29.916 178.641 30.068C179.097 30.212 179.449 30.456 179.697 30.8C179.953 31.136 180.129 31.536 180.225 32C180.321 32.456 180.369 33.052 180.369 33.788C180.369 34.524 180.325 35.136 180.237 35.624C180.149 36.104 179.981 36.536 179.733 36.92C179.493 37.296 179.141 37.572 178.677 37.748C178.213 37.916 177.621 38 176.901 38ZM178.641 34.76C178.657 34.504 178.665 34.152 178.665 33.704C178.665 33.248 178.649 32.884 178.617 32.612C178.585 32.34 178.509 32.092 178.389 31.868C178.269 31.644 178.089 31.492 177.849 31.412C177.617 31.324 177.301 31.28 176.901 31.28H175.809V36.56H176.901C177.501 36.56 177.937 36.408 178.209 36.104C178.441 35.856 178.585 35.408 178.641 34.76Z" fill="#323341"/>
<line x1="2" y1="33.95" x2="87" y2="33.95" stroke="#323341" stroke-width="8.1"/>
</svg>
